<svg xmlns="http://www.w3.org/2000/svg" viewBox="0 0 64 64" fill="none">
  <circle cx="32" cy="32" r="30" fill="#E50914"/>
  <circle cx="32" cy="32" r="22" fill="#0f0f0f"/>
  <circle cx="32" cy="32" r="4" fill="#E50914"/>
  <line x1="32" y1="10" x2="32" y2="54" stroke="#E50914" stroke-width="2.5"/>
  <line x1="10" y1="32" x2="54" y2="32" stroke="#E50914" stroke-width="2.5"/>
  <line x1="16.7" y1="16.7" x2="47.3" y2="47.3" stroke="#E50914" stroke-width="2.5"/>
  <line x1="47.3" y1="16.7" x2="16.7" y2="47.3" stroke="#E50914" stroke-width="2.5"/>
  <rect x="6" y="28" width="8" height="8" rx="1.5" fill="#E50914"/>
  <rect x="50" y="28" width="8" height="8" rx="1.5" fill="#E50914"/>
  <rect x="28" y="6" width="8" height="8" rx="1.5" fill="#E50914"/>
  <rect x="28" y="50" width="8" height="8" rx="1.5" fill="#E50914"/>
  <rect x="12" y="12" width="7" height="7" rx="1.5" fill="#E50914"/>
  <rect x="45" y="45" width="7" height="7" rx="1.5" fill="#E50914"/>
  <rect x="45" y="12" width="7" height="7" rx="1.5" fill="#E50914"/>
  <rect x="12" y="45" width="7" height="7" rx="1.5" fill="#E50914"/>
</svg>
